<?xml version="1.0" encoding="utf-8"?>
<!-- Generator: Adobe Illustrator 25.2.1, SVG Export Plug-In . SVG Version: 6.00 Build 0)  -->
<svg version="1.1" id="soof" xmlns="http://www.w3.org/2000/svg" xmlns:xlink="http://www.w3.org/1999/xlink" x="0px" y="0px"
	 viewBox="0 0 136.9 136.9" style="enable-background:new 0 0 136.9 136.9;" xml:space="preserve">
<style type="text/css">
	.st0{fill:#ffffff;}
</style>
<path class="st0" d="M66.1,36.6c-1.5-0.7-3.2-0.5-4.5,0.6L38.5,56.3H26.2c-2.3,0-4.2,1.9-4.2,4.2v16.8c0,2.3,1.9,4.2,4.2,4.2h12.3
	l23.1,19.1c0.8,0.6,1.7,1,2.7,1c0.6,0,1.2-0.1,1.8-0.4c1.5-0.7,2.4-2.2,2.4-3.8l0-57.1C68.5,38.8,67.5,37.3,66.1,36.6z"/>
<path class="st0" d="M98.7,68.5l10.6-10.6c1.8-1.8,1.8-4.6,0-6.4c-1.8-1.8-4.6-1.8-6.4,0L92.4,62.1L81.8,51.5
	c-1.8-1.8-4.6-1.8-6.4,0c-1.8,1.8-1.8,4.6,0,6.4L86,68.5L75.4,79c-1.8,1.8-1.8,4.6,0,6.4c0.9,0.9,2,1.3,3.2,1.3s2.3-0.4,3.2-1.3
	l10.6-10.6l10.6,10.6c0.9,0.9,2,1.3,3.2,1.3s2.3-0.4,3.2-1.3c1.8-1.8,1.8-4.6,0-6.4L98.7,68.5z"/>
</svg>
