<?xml version="1.0" encoding="utf-8"?>
<!-- Generator: Adobe Illustrator 25.2.1, SVG Export Plug-In . SVG Version: 6.00 Build 0)  -->
<svg version="1.1" id="soon" xmlns="http://www.w3.org/2000/svg" xmlns:xlink="http://www.w3.org/1999/xlink" x="0px" y="0px"
	 viewBox="0 0 136.9 136.9" style="enable-background:new 0 0 136.9 136.9;" xml:space="preserve">
<style type="text/css">
	.st0{fill:#ffffff;}
</style>
<g>
	<path class="st0" d="M68.5,97.5c0,1.6-0.9,3.1-2.4,3.8c-0.6,0.3-1.2,0.4-1.8,0.4c-1,0-1.9-0.3-2.7-1L38.5,81.6H26.2
		c-2.3,0-4.2-1.9-4.2-4.2V60.5c0-2.3,1.9-4.2,4.2-4.2h12.3l23.1-19.1c1.3-1,3-1.3,4.5-0.6c1.5,0.7,2.4,2.2,2.4,3.8L68.5,97.5
		L68.5,97.5z M84.7,90.9c-0.1,0-0.2,0-0.3,0c-1.1,0-2.2-0.4-3-1.2l-0.6-0.6c-1.5-1.5-1.7-3.8-0.4-5.5c3.2-4.3,4.8-9.3,4.8-14.6
		c0-5.7-1.9-11.1-5.5-15.5c-1.4-1.7-1.2-4.1,0.3-5.6l0.6-0.6c0.8-0.8,2-1.3,3.2-1.2c1.2,0.1,2.3,0.6,3.1,1.5
		c5,6.1,7.6,13.5,7.6,21.4c0,7.4-2.3,14.4-6.7,20.2C87.1,90.2,86,90.8,84.7,90.9z M102.2,103.9c-0.8,0.9-1.9,1.4-3.1,1.5
		c-0.1,0-0.1,0-0.2,0c-1.1,0-2.2-0.4-3-1.2l-0.6-0.6c-1.6-1.6-1.7-4-0.2-5.7c6.8-8.1,10.6-18.4,10.6-29c0-11-4-21.6-11.3-29.8
		c-1.5-1.7-1.4-4.2,0.2-5.8l0.6-0.6c0.8-0.8,1.9-1.3,3.1-1.2c1.2,0,2.3,0.5,3,1.4c8.8,9.9,13.7,22.7,13.7,36
		C115,81.7,110.4,94.2,102.2,103.9z"/>
</g>
</svg>
